<svg xmlns="http://www.w3.org/2000/svg" version="1.1" xmlns:xlink="http://www.w3.org/1999/xlink" width="512" height="512" x="0" y="0" viewBox="0 0 512.001 512.001" style="enable-background:new 0 0 512 512" xml:space="preserve" class=""><g><path d="m270.843 253.798-121.271-35.22c-26.323-7.645-41.465-35.182-33.82-61.505l35.22-121.271c7.645-26.323 35.182-41.465 61.505-33.82l121.271 35.22c26.323 7.645 41.465 35.182 33.82 61.505l-35.22 121.271c-7.645 26.323-35.182 41.465-61.505 33.82z" style="" fill="#f26666" data-original="#f26666" class=""></path><path d="M333.747 37.202 289.562 24.37c22.235 10.053 34.28 35.173 27.277 59.287L281.47 205.438c-7.062 24.317-31.029 39.116-55.4 35.357l44.773 13.003c26.323 7.645 53.86-7.497 61.505-33.82l35.22-121.271c7.645-26.323-7.497-53.86-33.821-61.505z" style="" fill="#dd5b5b" data-original="#dd5b5b" class=""></path><path d="M209.226 491.191 84.564 511.356c-27.059 4.377-52.543-14.011-56.92-41.07L7.479 345.624c-4.377-27.059 14.011-52.543 41.07-56.92l124.661-20.165c27.059-4.377 52.543 14.011 56.92 41.07l20.165 124.661c4.378 27.06-14.01 52.544-41.069 56.921z" style="" fill="#73e7e6" data-original="#73e7e6"></path><path d="M250.296 434.271 230.131 309.61c-4.377-27.059-29.861-45.447-56.92-41.07l-46.577 7.534c24.914-.899 47.182 16.863 51.266 42.11l20.379 125.99c3.647 22.543-8.348 43.993-27.991 53.315l38.937-6.298c27.06-4.377 45.448-29.861 41.071-56.92z" style="" fill="#65d1cb" data-original="#65d1cb"></path><path d="M455.533 498.384H329.251c-27.411 0-49.632-22.221-49.632-49.632V322.47c0-27.411 22.221-49.632 49.632-49.632h126.282c27.411 0 49.632 22.221 49.632 49.632v126.282c0 27.411-22.221 49.632-49.632 49.632z" style="" fill="#ff9f40" data-original="#ff9f40"></path><path d="M455.533 272.838h-40.439c22.129 5.253 38.595 25.129 38.595 48.865v127.816c0 23.735-16.466 43.612-38.595 48.865h40.439c27.411 0 49.632-22.221 49.632-49.632V322.47c0-27.411-22.221-49.632-49.632-49.632z" style="" fill="#f49138" data-original="#f49138"></path><path d="M236.701 181.264c-1.139 0-2.35-.177-3.502-.512-3.965-1.152-7.708-4.197-6.556-8.163l21.25-73.167-4.173 2.955-.051.028a6.114 6.114 0 0 1-2.899.75c-.46 0-.906-.058-1.288-.169-1.649-.479-2.95-1.72-3.663-3.494a7.945 7.945 0 0 1-.251-5.089c.71-2.445 2.744-4.617 5.078-5.432l18.116-9.503c.973-.536 1.948-.802 2.961-.802.62 0 1.252.096 1.931.293 3.565 1.035 6.772 4.36 5.737 7.925l-26.28 90.487c-.71 2.437-3.106 3.893-6.41 3.893zM107.93 446.972c-3.16 0-6.791-1.682-7.295-4.801l-2.205-13.63c-1.947-12.041 8.733-22.852 19.063-33.306 10.031-10.153 19.505-19.742 17.861-29.908-.942-5.821-5.453-11.695-13.406-11.695-.956 0-1.956.083-2.975.248-3.841.621-6.907 2.222-8.866 4.63-2.161 2.656-2.908 6.154-2.222 10.395.527 3.262-2.25 7.174-7.812 8.074-.603.097-1.183.147-1.727.147-4.123 0-6.659-2.758-7.54-8.198-2.387-14.757 8.633-27.959 25.634-30.71a36.543 36.543 0 0 1 5.817-.471c15.554 0 27.592 9.814 29.955 24.421 2.907 17.977-11.077 31.593-22.315 42.533-8.122 7.908-15.137 14.737-14.119 21.034l.7 4.323 40.293-6.518c.232-.038.467-.056.703-.056 3.015 0 5.844 2.888 6.441 6.576.656 4.062-1.573 8.218-4.679 8.721l-50.021 8.091c-.407.066-.84.099-1.285.1zM391.894 439.091c-10.312 0-18.876-2.972-24.766-8.594-4.906-4.683-7.72-11.057-7.72-17.487 0-5.419 2.17-7.435 8.004-7.435 6.374 0 8.858 1.885 8.858 6.723 0 5.652 4.875 11.354 15.766 11.354 11.351 0 16.194-4.97 16.194-16.62v-2.704c0-9.747-5.343-14.485-16.335-14.485-3.62 0-5.869-2.685-5.869-7.007 0-4.41 2.249-7.15 5.869-7.15 8.267 0 13.773-2.488 13.773-14.628 0-9.427-4.072-13.631-13.204-13.631-11.384 0-13.773 5.787-13.773 10.642 0 4.744-2.741 7.15-8.146 7.15-6.954 0-8.858-1.721-8.858-8.004 0-9.317 6.512-25.084 30.919-25.084 19.667 0 29.639 8.871 29.639 26.365 0 10.851-3.738 19.497-10.103 23.646 8.669 4.119 13.234 11.747 13.234 22.185v2.704c-.001 11.974-4.35 32.06-33.482 32.06z" style="" fill="#ffffff" data-original="#ffffff"></path></g></svg>
