<svg height="48pt" viewBox="0 0 48 48" width="48pt" xmlns="http://www.w3.org/2000/svg" xmlns:xlink="http://www.w3.org/1999/xlink"><linearGradient id="a" gradientUnits="userSpaceOnUse" x1="1" x2="47" y1="24" y2="24"><stop offset="0" stop-color="#feac5e"/><stop offset=".47826086957" stop-color="#c779d0"/><stop offset=".97826086957" stop-color="#4bc0c8"/></linearGradient><path d="m5 12.55c0 1.104-.896 2-2 2-1.104 0-2-.896-2-2v-6.55c0-2.76 2.24-5 5-5h36c2.76 0 5 2.24 5 5v19c0 1.104-.896 2-2 2-1.104 0-2-.896-2-2v-17c0-1.656-1.344-3-3-3h-32c-1.656 0-3 1.344-3 3zm38 22.9c0-1.104.896-2 2-2 1.104 0 2 .896 2 2v6.55c0 2.76-2.24 5-5 5h-36c-2.76 0-5-2.24-5-5v-19.82c0-1.104.896-2 2-2 1.104 0 2 .896 2 2v17.82c0 1.656 1.344 3 3 3h32c1.656 0 3-1.344 3-3zm-15.075-21.213c-.13.017-.227.127-.228.257v.51c0 .144.116.26.26.26.577 0 .943.018 1.186.094.241.076.39.197.604.497.001.002.002.002.003.003l3.973 5.831-3.573 5.224c-.838 1.213-2.075 1.221-2.469 1.221-.144 0-.26.117-.26.26v.51c0 .073.03.143.084.192.054.05.126.074.199.068.238-.02.583-.022.912-.026-.196 1.168-.43 2.057-.929 2.631-.543.626-1.426.968-3.102.968h-2.933c-.206 0-.355-.006-.449-.022-.093-.017-.116-.036-.123-.043-.007-.006-.023-.026-.036-.11-.012-.084-.016-.22-.016-.4v-5.645h1.731c.965 0 1.399.17 1.628.484.229.313.296.888.296 1.77 0 .144.116.26.259.26h.342c.143 0 .259-.116.259-.26v-5.496c0-.144-.116-.26-.259-.26h-.342c-.143 0-.259.116-.259.26 0 .867-.065 1.434-.293 1.741-.228.306-.665.471-1.631.471h-1.731v-4.977c0-.176.004-.305.016-.386.013-.082.027-.098.033-.104s.029-.026.123-.043c.094-.016.246-.026.452-.026h2.888c1.6 0 2.407.31 2.884.904.477.593.655 1.567.803 2.956.015.132.127.231.259.23h.381c.073.001.144-.03.193-.085.05-.054.074-.127.066-.201l-.506-4.671c-.014-.133-.126-.234-.26-.234h-8.963l-.321-4.34c-.009-.137-.123-.244-.26-.243h-12.198c-.136-.001-.25.104-.26.24l-.357 4.671c-.006.073.019.144.069.197.049.053.118.083.191.083h.38c.135 0 .248-.103.26-.237.136-1.744.298-2.723.734-3.22.218-.248.509-.405.968-.51.458-.104 1.076-.146 1.887-.146h1.127c.149.023.128.021.15.078.021.058.032.225.032.468v11.499c0 .188-.007.329-.029.413s-.039.112-.107.156c-.136.087-.571.169-1.449.169h-.598c-.143 0-.26.116-.26.26v.51c0 .07.029.137.079.186s.118.075.188.074c1.013-.02 2.066-.039 3.099-.039 1.03 0 2.086.019 3.099.039.07.001.138-.025.188-.074s.078-.116.078-.186v-.51c0-.144-.116-.26-.26-.26h-.591c-.865 0-1.291-.083-1.423-.169-.066-.043-.082-.068-.104-.153-.021-.084-.029-.228-.029-.416v-11.499c0-.233.01-.393.033-.455.021-.059.017-.063.136-.091h1.111c.793 0 1.399.041 1.852.143.452.102.746.257.964.5.41.456.583 1.35.715 2.862h-.828c-.144 0-.26.117-.26.26v.582c0 .143.116.259.26.259.748 0 1.178.027 1.319.095.07.033.085.05.113.133.029.083.046.235.046.461v11.399c0 .226-.017.385-.046.468-.028.083-.044.099-.113.133-.14.067-.57.091-1.319.091-.144 0-.26.116-.26.26v.513c0 .143.116.26.26.26h10.992c.13-.001.239-.096.257-.224l.627-4.415c.577 0 1.519.002 2.004.039.072.005.143-.019.196-.068.052-.048.083-.117.084-.189v-.51c0-.134-.101-.246-.234-.259-.274-.027-.411-.118-.494-.218s-.117-.226-.117-.348c0-.206.057-.277.162-.425.002-.001.003-.002.004-.003l3.164-4.62 3.459 5.087c.001.002.002.005.004.007.077.108.108.17.116.191.009.022.004-.008.004.02 0-.031-.028.273-.686.312-.137.008-.244.122-.243.26v.51c0 .071.03.139.083.187.052.049.122.074.193.069.66-.039 1.691-.039 2.387-.039.548 0 1.611.001 2.096.039.071.006.142-.019.195-.067.053-.049.083-.117.084-.189v-.51c0-.144-.116-.26-.26-.26-.67 0-1.04-.033-1.254-.111-.212-.077-.316-.194-.516-.477l-.004-.003-4.541-6.643 3.021-4.37c.001-.001.003-.002.003-.003.315-.446.833-1.248 2.473-1.27.142-.002.256-.118.256-.26v-.51c0-.072-.031-.141-.085-.19s-.125-.073-.197-.067c-.461.039-1.265.039-1.771.039-.695 0-1.564 0-2.069-.039-.072-.005-.143.02-.195.068-.053.049-.084.117-.085.189v.51c0 .135.103.248.238.26.286.027.417.116.497.214.079.098.11.227.11.354 0 .182-.061.283-.205.484-.001.002-.002.003-.003.004l-2.576 3.732-2.91-4.262c-.065-.101-.102-.169-.114-.198-.013-.03-.007-.011-.007-.016 0 .019.064-.295.676-.312.141-.004.253-.119.253-.26v-.51c0-.071-.03-.139-.083-.188-.052-.048-.122-.073-.193-.069-.661.04-1.695.039-2.391.039-.546 0-1.609-.001-2.092-.039-.017-.001-.034-.001-.052 0z" fill="url(#a)" fill-rule="evenodd"/></svg>